<svg width="1e3" height="1e3" version="1.1" viewBox="0 0 264.58 264.58" xmlns="http://www.w3.org/2000/svg">
	<g>
		<path d="m52.586 115.34 114.11-84.804 77.803 47.29-113.04 82.933z" fill="#0000FF"/>
		<path d="m131.45 160.76 0.21329 40.236 112.86-85.193-0.0293-37.976-113.04 82.933" fill="#0000FF"/>
		<path d="m27.629 134.19-0.1207 40.408 79.244 45.259-0.20187-40.105z" fill="#cccccc"/>
		<path d="m106.75 219.86 24.913-18.869-0.21257-40.236-24.902 19z" fill="#b3b3b3"/>
		<path d="m69.277 127.06 115.25-85.687 40.301 24.397-113.29 86.259z" fill="#ffffff"/>
		<path d="m106.55 179.76-78.921-45.563 24.957-18.856 78.866 45.418" fill="#f2f2f2"/>
		<path d="m131.45 160.76 0.21329 40.236 112.86-85.193-0.0293-37.976-113.04 82.933" fill="#000000" opacity=".15"/>
	</g>
</svg>
