<?xml version="1.0" encoding="UTF-8" standalone="no"?>
<!DOCTYPE svg PUBLIC "-//W3C//DTD SVG 1.1//EN" "http://www.w3.org/Graphics/SVG/1.1/DTD/svg11.dtd">
<svg width="100%" height="100%" viewBox="0 0 800 800" version="1.1" xmlns="http://www.w3.org/2000/svg" xmlns:xlink="http://www.w3.org/1999/xlink" xml:space="preserve" xmlns:serif="http://www.serif.com/" style="fill-rule:evenodd;clip-rule:evenodd;stroke-linejoin:round;stroke-miterlimit:2;">
    <g transform="matrix(1,0,0,1,-2083,-1950)">
        <g transform="matrix(2.02015,0,0,2.02017,1796.24,1393.69)">
            <rect x="142.327" y="275.741" width="396.011" height="396.011" style="fill:none;"/>
            <g transform="matrix(1,0,0,1,-38.904,-33.0049)">
                <g transform="matrix(0.495014,0,0,0.495007,-433.471,-689.886)">
                    <path d="M1333.74,2058.07L1785.74,2058.07L1785.74,2549.21L1697.14,2643.41L1333.74,2643.41L1333.74,2058.07Z" style="fill:url(#_Linear1);"/>
                </g>
                <g transform="matrix(0.495014,0,0,0.495007,-433.471,-689.886)">
                    <path d="M1785.74,2549.21L1697.14,2643.41L1697.14,2549.21L1785.74,2549.21Z" style="fill:url(#_Linear2);"/>
                </g>
                <g transform="matrix(0.495014,0,0,0.495007,22.0255,-161.751)">
                    <rect x="471.386" y="1169.46" width="336.367" height="40.171" style="fill:url(#_Linear3);"/>
                </g>
                <g transform="matrix(0.495014,0,0,0.495007,22.0255,-207.249)">
                    <rect x="471.386" y="1169.46" width="336.367" height="40.171" style="fill:url(#_Linear4);"/>
                </g>
                <g transform="matrix(0.495014,0,0,0.495007,22.0255,-70.7543)">
                    <rect x="471.386" y="1169.46" width="336.367" height="40.171" style="fill:url(#_Linear5);"/>
                </g>
                <g transform="matrix(0.495014,0,0,0.495007,22.0255,-116.252)">
                    <rect x="471.386" y="1169.46" width="336.367" height="40.171" style="fill:url(#_Linear6);"/>
                </g>
                <g transform="matrix(0.374138,0,0,0.543205,79.0045,-81.6216)">
                    <rect x="471.386" y="1169.46" width="336.367" height="40.171" style="fill:url(#_Linear7);"/>
                </g>
            </g>
            <g transform="matrix(1,0,0,1,38.904,33.0049)">
                <g transform="matrix(0.495014,0,0,0.495007,-433.471,-689.886)">
                    <path d="M1333.74,2058.07L1785.74,2058.07L1785.74,2549.21L1697.14,2643.41L1333.74,2643.41L1333.74,2058.07Z" style="fill:url(#_Linear8);"/>
                </g>
                <g transform="matrix(0.495014,0,0,0.495007,-433.471,-689.886)">
                    <path d="M1785.74,2549.21L1697.14,2643.41L1697.14,2549.21L1785.74,2549.21Z" style="fill:url(#_Linear9);"/>
                </g>
                <g transform="matrix(0.495014,0,0,0.495007,22.0255,-161.751)">
                    <rect x="471.386" y="1169.46" width="336.367" height="40.171" style="fill:url(#_Linear10);"/>
                </g>
                <g transform="matrix(0.495014,0,0,0.495007,22.0255,-207.249)">
                    <rect x="471.386" y="1169.46" width="336.367" height="40.171" style="fill:url(#_Linear11);"/>
                </g>
                <g transform="matrix(0.495014,0,0,0.495007,22.0255,-70.7543)">
                    <rect x="471.386" y="1169.46" width="336.367" height="40.171" style="fill:url(#_Linear12);"/>
                </g>
                <g transform="matrix(0.495014,0,0,0.495007,22.0255,-116.252)">
                    <rect x="471.386" y="1169.46" width="336.367" height="40.171" style="fill:url(#_Linear13);"/>
                </g>
                <g transform="matrix(0.374138,0,0,0.543205,79.0045,-81.6216)">
                    <rect x="471.386" y="1169.46" width="336.367" height="40.171" style="fill:url(#_Linear14);"/>
                </g>
            </g>
        </g>
    </g>
    <defs>
        <linearGradient id="_Linear1" x1="0" y1="0" x2="1" y2="0" gradientUnits="userSpaceOnUse" gradientTransform="matrix(452,0,0,585.333,1333.74,2350.74)"><stop offset="0" style="stop-color:rgb(227,227,228);stop-opacity:1"/><stop offset="1" style="stop-color:rgb(239,246,251);stop-opacity:1"/></linearGradient>
        <linearGradient id="_Linear2" x1="0" y1="0" x2="1" y2="0" gradientUnits="userSpaceOnUse" gradientTransform="matrix(83.5957,0,0,87.1932,1702.14,2599.81)"><stop offset="0" style="stop-color:rgb(116,106,101);stop-opacity:1"/><stop offset="1" style="stop-color:rgb(166,159,154);stop-opacity:1"/></linearGradient>
        <linearGradient id="_Linear3" x1="0" y1="0" x2="1" y2="0" gradientUnits="userSpaceOnUse" gradientTransform="matrix(506.419,0,0,87.8098,92.082,1417.7)"><stop offset="0" style="stop-color:rgb(49,55,63);stop-opacity:1"/><stop offset="1" style="stop-color:rgb(165,168,175);stop-opacity:1"/></linearGradient>
        <linearGradient id="_Linear4" x1="0" y1="0" x2="1" y2="0" gradientUnits="userSpaceOnUse" gradientTransform="matrix(506.419,0,0,87.8098,92.082,1509.62)"><stop offset="0" style="stop-color:rgb(49,55,63);stop-opacity:1"/><stop offset="1" style="stop-color:rgb(165,168,175);stop-opacity:1"/></linearGradient>
        <linearGradient id="_Linear5" x1="0" y1="0" x2="1" y2="0" gradientUnits="userSpaceOnUse" gradientTransform="matrix(506.419,0,0,87.8098,92.082,1233.88)"><stop offset="0" style="stop-color:rgb(49,55,63);stop-opacity:1"/><stop offset="1" style="stop-color:rgb(165,168,175);stop-opacity:1"/></linearGradient>
        <linearGradient id="_Linear6" x1="0" y1="0" x2="1" y2="0" gradientUnits="userSpaceOnUse" gradientTransform="matrix(506.419,0,0,87.8098,92.082,1325.79)"><stop offset="0" style="stop-color:rgb(49,55,63);stop-opacity:1"/><stop offset="1" style="stop-color:rgb(165,168,175);stop-opacity:1"/></linearGradient>
        <linearGradient id="_Linear7" x1="0" y1="0" x2="1" y2="0" gradientUnits="userSpaceOnUse" gradientTransform="matrix(670.032,0,0,80.0185,-30.4624,1144.4)"><stop offset="0" style="stop-color:rgb(49,55,63);stop-opacity:1"/><stop offset="1" style="stop-color:rgb(165,168,175);stop-opacity:1"/></linearGradient>
        <linearGradient id="_Linear8" x1="0" y1="0" x2="1" y2="0" gradientUnits="userSpaceOnUse" gradientTransform="matrix(452,0,0,585.333,1333.74,2350.74)"><stop offset="0" style="stop-color:rgb(239,246,251);stop-opacity:1"/><stop offset="1" style="stop-color:rgb(227,227,228);stop-opacity:1"/></linearGradient>
        <linearGradient id="_Linear9" x1="0" y1="0" x2="1" y2="0" gradientUnits="userSpaceOnUse" gradientTransform="matrix(83.5957,0,0,87.1932,1702.14,2599.81)"><stop offset="0" style="stop-color:rgb(116,106,101);stop-opacity:1"/><stop offset="1" style="stop-color:rgb(166,159,154);stop-opacity:1"/></linearGradient>
        <linearGradient id="_Linear10" x1="0" y1="0" x2="1" y2="0" gradientUnits="userSpaceOnUse" gradientTransform="matrix(506.419,0,0,87.8098,92.082,1417.7)"><stop offset="0" style="stop-color:rgb(49,55,63);stop-opacity:1"/><stop offset="1" style="stop-color:rgb(165,168,175);stop-opacity:1"/></linearGradient>
        <linearGradient id="_Linear11" x1="0" y1="0" x2="1" y2="0" gradientUnits="userSpaceOnUse" gradientTransform="matrix(506.419,0,0,87.8098,92.082,1509.62)"><stop offset="0" style="stop-color:rgb(49,55,63);stop-opacity:1"/><stop offset="1" style="stop-color:rgb(165,168,175);stop-opacity:1"/></linearGradient>
        <linearGradient id="_Linear12" x1="0" y1="0" x2="1" y2="0" gradientUnits="userSpaceOnUse" gradientTransform="matrix(506.419,0,0,87.8098,92.082,1233.88)"><stop offset="0" style="stop-color:rgb(49,55,63);stop-opacity:1"/><stop offset="1" style="stop-color:rgb(165,168,175);stop-opacity:1"/></linearGradient>
        <linearGradient id="_Linear13" x1="0" y1="0" x2="1" y2="0" gradientUnits="userSpaceOnUse" gradientTransform="matrix(506.419,0,0,87.8098,92.082,1325.79)"><stop offset="0" style="stop-color:rgb(49,55,63);stop-opacity:1"/><stop offset="1" style="stop-color:rgb(165,168,175);stop-opacity:1"/></linearGradient>
        <linearGradient id="_Linear14" x1="0" y1="0" x2="1" y2="0" gradientUnits="userSpaceOnUse" gradientTransform="matrix(670.032,0,0,80.0185,-30.4624,1144.4)"><stop offset="0" style="stop-color:rgb(49,55,63);stop-opacity:1"/><stop offset="1" style="stop-color:rgb(165,168,175);stop-opacity:1"/></linearGradient>
    </defs>
</svg>
