<?xml version="1.0" encoding="UTF-8" standalone="no"?>
<!DOCTYPE svg PUBLIC "-//W3C//DTD SVG 1.1//EN" "http://www.w3.org/Graphics/SVG/1.1/DTD/svg11.dtd">
<svg width="100%" height="100%" viewBox="0 0 800 800" version="1.1" xmlns="http://www.w3.org/2000/svg" xmlns:xlink="http://www.w3.org/1999/xlink" xml:space="preserve" xmlns:serif="http://www.serif.com/" style="fill-rule:evenodd;clip-rule:evenodd;stroke-linejoin:round;stroke-miterlimit:2;">
    <g transform="matrix(1,0,0,1,-235,-809)">
        <g transform="matrix(2.02015,0,0,2.02017,-51.8034,252.584)">
            <rect x="142.327" y="275.741" width="396.011" height="396.011" style="fill:none;"/>
            <g transform="matrix(0.512671,0,0,0.512664,11.4788,-111.407)">
                <path d="M882.952,960.461C882.952,952.403 876.41,945.861 868.352,945.861L414.552,945.861C406.494,945.861 399.952,952.403 399.952,960.461L399.952,1296.26C399.952,1304.32 406.494,1310.86 414.552,1310.86L868.352,1310.86C876.41,1310.86 882.952,1304.32 882.952,1296.26L882.952,960.461Z" style="fill:url(#_Linear1);"/>
            </g>
            <g transform="matrix(0.458118,0,0,0.4422,46.472,-31.8973)">
                <rect x="399.952" y="945.861" width="483" height="365" style="fill:url(#_Linear2);"/>
            </g>
            <g transform="matrix(0.495014,0,0,0.495007,25.6434,-126.376)">
                <path d="M967.218,1388.04L967.219,1387.86L304.219,1387.86C304.219,1402.76 316.317,1414.86 331.219,1414.86L940.219,1414.86C955.062,1414.86 967.124,1402.86 967.218,1388.04Z" style="fill:url(#_Linear3);"/>
            </g>
            <g transform="matrix(0.495014,0,0,0.495007,21.3203,-214.487)">
                <path d="M699.952,1565.86L588.952,1565.86L588.952,1570.99C588.952,1575.61 592.705,1579.36 597.327,1579.36L691.577,1579.36C696.199,1579.36 699.952,1575.61 699.952,1570.99L699.952,1565.86Z" style="fill:url(#_Linear4);"/>
            </g>
            <g transform="matrix(1,0,0,1,-2.91997,3.00859)">
                <g transform="matrix(0.495014,0,0,0.495007,19.7032,-111.831)">
                    <rect x="492.951" y="1143.81" width="181.333" height="120" style="fill:url(#_Linear5);"/>
                </g>
                <g transform="matrix(0.495014,0,0,0.495007,89.0051,-151.849)">
                    <rect x="492.951" y="1143.81" width="181.333" height="120" style="fill:url(#_Linear6);"/>
                </g>
            </g>
        </g>
    </g>
    <defs>
        <linearGradient id="_Linear1" x1="0" y1="0" x2="1" y2="0" gradientUnits="userSpaceOnUse" gradientTransform="matrix(6.7072e-13,-365,483,8.87556e-13,641.452,1310.86)"><stop offset="0" style="stop-color:rgb(69,76,84);stop-opacity:1"/><stop offset="1" style="stop-color:rgb(26,31,37);stop-opacity:1"/></linearGradient>
        <linearGradient id="_Linear2" x1="0" y1="0" x2="1" y2="0" gradientUnits="userSpaceOnUse" gradientTransform="matrix(2.81801e-12,365,-483,2.12955e-12,641.452,945.861)"><stop offset="0" style="stop-color:rgb(0,149,217);stop-opacity:1"/><stop offset="1" style="stop-color:rgb(150,225,170);stop-opacity:1"/></linearGradient>
        <linearGradient id="_Linear3" x1="0" y1="0" x2="1" y2="0" gradientUnits="userSpaceOnUse" gradientTransform="matrix(1.13475e-12,27,-27,1.13475e-12,635.719,1387.86)"><stop offset="0" style="stop-color:rgb(192,191,191);stop-opacity:1"/><stop offset="1" style="stop-color:rgb(81,88,95);stop-opacity:1"/></linearGradient>
        <linearGradient id="_Linear4" x1="0" y1="0" x2="1" y2="0" gradientUnits="userSpaceOnUse" gradientTransform="matrix(1.14086e-12,-88.1667,88.1667,1.14086e-12,644.452,1579.36)"><stop offset="0" style="stop-color:rgb(222,221,218);stop-opacity:1"/><stop offset="1" style="stop-color:rgb(81,88,95);stop-opacity:1"/></linearGradient>
        <linearGradient id="_Linear5" x1="0" y1="0" x2="1" y2="0" gradientUnits="userSpaceOnUse" gradientTransform="matrix(1.05797e-12,120,-181.333,7.00127e-13,583.617,1143.81)"><stop offset="0" style="stop-color:rgb(222,221,218);stop-opacity:1"/><stop offset="1" style="stop-color:white;stop-opacity:1"/></linearGradient>
        <linearGradient id="_Linear6" x1="0" y1="0" x2="1" y2="0" gradientUnits="userSpaceOnUse" gradientTransform="matrix(1.05797e-12,120,-181.333,7.00127e-13,583.617,1143.81)"><stop offset="0" style="stop-color:rgb(222,221,218);stop-opacity:1"/><stop offset="1" style="stop-color:white;stop-opacity:1"/></linearGradient>
    </defs>
</svg>
