<?xml version="1.0" encoding="UTF-8" standalone="no"?>
<!DOCTYPE svg PUBLIC "-//W3C//DTD SVG 1.1//EN" "http://www.w3.org/Graphics/SVG/1.1/DTD/svg11.dtd">
<svg width="100%" height="100%" viewBox="0 0 800 800" version="1.1" xmlns="http://www.w3.org/2000/svg" xmlns:xlink="http://www.w3.org/1999/xlink" xml:space="preserve" xmlns:serif="http://www.serif.com/" style="fill-rule:evenodd;clip-rule:evenodd;stroke-linejoin:round;stroke-miterlimit:2;">
    <g transform="matrix(1,0,0,1,-3007,-809)">
        <g transform="matrix(2.02015,0,0,2.02017,2720.26,252.584)">
            <rect x="142.327" y="275.741" width="396.011" height="396.011" style="fill:none;"/>
            <g transform="matrix(0.766765,0,0,0.587115,-1561.48,-240.351)">
                <path d="M2346.3,1448.14L2398.55,1364.15L2562.05,1364.15L2614.3,1448.14L2346.3,1448.14Z" style="fill:url(#_Linear1);"/>
            </g>
            <g transform="matrix(1,0,0,1,1.7622e-12,75.9469)">
                <g>
                    <g transform="matrix(0.587123,0,0,0.587115,-575.426,-252.169)">
                        <path d="M1560.6,875.199C1634.16,875.665 1693.74,935.528 1693.74,1009.2C1693.74,1011.04 1693.7,1012.87 1693.63,1014.7C1693.7,1014.85 1693.74,1015.01 1693.74,1015.17C1693.74,1101.34 1570.3,1187.84 1570.3,1263.84L1570.3,1275.37C1570.3,1281.19 1565.57,1285.92 1559.74,1285.92C1553.91,1285.92 1549.18,1281.19 1549.18,1275.37L1549.18,1263.84C1549.18,1187.84 1425.74,1101.34 1425.74,1015.17C1425.74,1015.01 1425.78,1014.85 1425.85,1014.7C1425.78,1012.87 1425.74,1011.04 1425.74,1009.2C1425.74,935.24 1485.78,875.197 1559.74,875.197L1560.6,875.199Z" style="fill:url(#_Linear2);"/>
                    </g>
                    <g transform="matrix(0.495014,0,0,0.495007,-887.449,-603.913)">
                        <path d="M2369.32,2031.5C2342.83,1992.98 2321.37,1953.79 2321.37,1914.66C2321.37,1914.46 2321.41,1914.28 2321.5,1914.1C2321.41,1911.93 2321.37,1909.75 2321.37,1907.57C2321.37,1819.85 2392.58,1748.63 2480.3,1748.63L2481.33,1748.64C2528.06,1748.93 2570.04,1769.45 2598.95,1801.87L2369.32,2031.5Z" style="fill:url(#_Linear3);"/>
                    </g>
                    <g transform="matrix(0.495014,0,0,0.495007,-887.449,-932.598)">
                        <path d="M2370.07,2457.12L2598.19,2685.24C2554.89,2750.93 2492.82,2814.9 2492.82,2873.59L2492.82,2887.27C2492.82,2894.18 2487.21,2899.79 2480.3,2899.79C2473.39,2899.79 2467.78,2894.18 2467.78,2887.27L2467.78,2873.59C2467.78,2783.45 2321.37,2680.86 2321.37,2578.66C2321.37,2578.46 2321.41,2578.28 2321.5,2578.1C2321.41,2575.93 2321.37,2573.75 2321.37,2571.57C2321.37,2526.64 2340.05,2486.04 2370.07,2457.12Z" style="fill:url(#_Linear4);"/>
                    </g>
                </g>
                <g transform="matrix(0.625372,0,0,0.625364,-621.647,-271.445)">
                    <path d="M1538.25,904.94C1580.61,904.94 1615,939.33 1615,981.69C1615,1024.05 1580.61,1058.44 1538.25,1058.44C1495.89,1058.44 1461.5,1024.05 1461.5,981.69C1461.5,939.33 1495.89,904.94 1538.25,904.94ZM1538.25,935.893C1563.53,935.893 1584.05,956.414 1584.05,981.69C1584.05,1006.97 1563.53,1027.49 1538.25,1027.49C1512.98,1027.49 1492.45,1006.97 1492.45,981.69C1492.45,956.414 1512.98,935.893 1538.25,935.893Z" style="fill:white;"/>
                </g>
            </g>
        </g>
    </g>
    <defs>
        <linearGradient id="_Linear1" x1="0" y1="0" x2="1" y2="0" gradientUnits="userSpaceOnUse" gradientTransform="matrix(268,0,0,83.9862,2346.3,1406.14)"><stop offset="0" style="stop-color:rgb(235,223,204);stop-opacity:1"/><stop offset="1" style="stop-color:rgb(180,167,167);stop-opacity:1"/></linearGradient>
        <linearGradient id="_Linear2" x1="0" y1="0" x2="1" y2="0" gradientUnits="userSpaceOnUse" gradientTransform="matrix(268,0,0,410.728,1425.74,1080.56)"><stop offset="0" style="stop-color:rgb(239,234,167);stop-opacity:1"/><stop offset="1" style="stop-color:rgb(238,191,62);stop-opacity:1"/></linearGradient>
        <linearGradient id="_Linear3" x1="0" y1="0" x2="1" y2="0" gradientUnits="userSpaceOnUse" gradientTransform="matrix(2.98296e-14,-487.154,496.421,3.0397e-14,2480.3,2235.79)"><stop offset="0" style="stop-color:rgb(252,204,161);stop-opacity:1"/><stop offset="1" style="stop-color:rgb(223,100,78);stop-opacity:1"/></linearGradient>
        <linearGradient id="_Linear4" x1="0" y1="0" x2="1" y2="0" gradientUnits="userSpaceOnUse" gradientTransform="matrix(276.828,0,0,442.673,2321.37,2678.45)"><stop offset="0" style="stop-color:rgb(0,149,217);stop-opacity:1"/><stop offset="1" style="stop-color:rgb(150,225,170);stop-opacity:1"/></linearGradient>
    </defs>
</svg>
