<?xml version="1.0" encoding="UTF-8" standalone="no"?>
<!DOCTYPE svg PUBLIC "-//W3C//DTD SVG 1.1//EN" "http://www.w3.org/Graphics/SVG/1.1/DTD/svg11.dtd">
<svg width="100%" height="100%" viewBox="0 0 800 800" version="1.1" xmlns="http://www.w3.org/2000/svg" xmlns:xlink="http://www.w3.org/1999/xlink" xml:space="preserve" xmlns:serif="http://www.serif.com/" style="fill-rule:evenodd;clip-rule:evenodd;stroke-linejoin:round;stroke-miterlimit:2;">
    <g transform="matrix(1,0,0,1,-1159,-809)">
        <g transform="matrix(2.02015,0,0,2.02017,872.216,252.584)">
            <rect x="142.327" y="275.741" width="396.011" height="396.011" style="fill:none;"/>
            <g>
                <g transform="matrix(0.313993,0,0,0.313989,-199.639,43.7111)">
                    <path d="M1607.74,989.774C1634.28,995.549 1659.08,1006.01 1681.23,1020.26L1747.12,954.368L1815,1022.25L1749.11,1088.15C1763.36,1110.3 1773.82,1135.1 1779.6,1161.63L1872.74,1161.63L1872.74,1257.63L1779.6,1257.63C1773.82,1284.17 1763.36,1308.97 1749.11,1331.12L1815,1397.02L1747.12,1464.9L1681.23,1399C1659.08,1413.25 1634.28,1423.72 1607.74,1429.49L1607.74,1522.63L1511.74,1522.63L1511.74,1429.49C1485.2,1423.72 1460.4,1413.25 1438.25,1399L1372.36,1464.9L1304.47,1397.02L1370.37,1331.12C1356.12,1308.97 1345.65,1284.17 1339.88,1257.63L1246.74,1257.63L1246.74,1161.63L1339.88,1161.63C1345.65,1135.09 1356.12,1110.29 1370.37,1088.15L1304.47,1022.25L1372.36,954.368L1438.25,1020.26C1460.4,1006.02 1485.2,995.55 1511.74,989.774L1511.74,896.634L1607.74,896.634L1607.74,989.774ZM1559.74,1084.63C1628.73,1084.63 1684.74,1140.64 1684.74,1209.63C1684.74,1278.62 1628.73,1334.63 1559.74,1334.63C1490.75,1334.63 1434.74,1278.62 1434.74,1209.63C1434.74,1140.64 1490.75,1084.63 1559.74,1084.63Z" style="fill:url(#_Linear1);"/>
                </g>
                <g transform="matrix(0.231108,0.0957269,-0.0957281,0.231105,167.233,116.456)">
                    <path d="M1607.74,989.774C1634.28,995.549 1659.08,1006.01 1681.23,1020.26L1747.12,954.368L1815,1022.25L1749.11,1088.15C1763.36,1110.3 1773.82,1135.1 1779.6,1161.63L1872.74,1161.63L1872.74,1257.63L1779.6,1257.63C1773.82,1284.17 1763.36,1308.97 1749.11,1331.12L1815,1397.02L1747.12,1464.9L1681.23,1399C1659.08,1413.25 1634.28,1423.72 1607.74,1429.49L1607.74,1522.63L1511.74,1522.63L1511.74,1429.49C1485.2,1423.72 1460.4,1413.25 1438.25,1399L1372.36,1464.9L1304.47,1397.02L1370.37,1331.12C1356.12,1308.97 1345.65,1284.17 1339.88,1257.63L1246.74,1257.63L1246.74,1161.63L1339.88,1161.63C1345.65,1135.09 1356.12,1110.29 1370.37,1088.15L1304.47,1022.25L1372.36,954.368L1438.25,1020.26C1460.4,1006.02 1485.2,995.55 1511.74,989.774L1511.74,896.634L1607.74,896.634L1607.74,989.774ZM1559.74,1084.63C1628.73,1084.63 1684.74,1140.64 1684.74,1209.63C1684.74,1278.62 1628.73,1334.63 1559.74,1334.63C1490.75,1334.63 1434.74,1278.62 1434.74,1209.63C1434.74,1140.64 1490.75,1084.63 1559.74,1084.63Z" style="fill:url(#_Linear2);"/>
                </g>
            </g>
        </g>
    </g>
    <defs>
        <linearGradient id="_Linear1" x1="0" y1="0" x2="1" y2="0" gradientUnits="userSpaceOnUse" gradientTransform="matrix(626,0,0,626,1246.74,1209.63)"><stop offset="0" style="stop-color:rgb(155,146,141);stop-opacity:1"/><stop offset="1" style="stop-color:rgb(69,76,84);stop-opacity:1"/></linearGradient>
        <linearGradient id="_Linear2" x1="0" y1="0" x2="1" y2="0" gradientUnits="userSpaceOnUse" gradientTransform="matrix(626,0,0,626,1246.74,1209.63)"><stop offset="0" style="stop-color:rgb(155,140,129);stop-opacity:1"/><stop offset="1" style="stop-color:rgb(97,77,62);stop-opacity:1"/></linearGradient>
    </defs>
</svg>
